# Blender v2.79 (sub 0) OBJ File: 'untitled.blend'
# www.blender.org
mtllib firecrystal.mtl
o Crystal_Customizer1
v 0.608171 0.523939 0.826404
v 0.493614 0.540217 0.826404
v 0.618118 0.243878 0.680804
v 0.599644 0.247999 0.648131
v 0.667677 0.531469 0.727456
v 0.635193 0.545515 0.669073
v 0.562036 0.074769 0.699734
v 0.398708 0.070109 0.675624
v 0.390762 0.137601 0.658861
v 0.459658 0.566689 0.692375
v 0.395923 0.137852 0.650138
v 0.438561 0.564019 0.727456
v 0.623105 0.584622 0.700441
v 0.593706 0.660234 0.746181
v 0.464833 0.574747 0.700018
v 0.545471 0.667088 0.746181
v 0.557998 0.668671 0.725349
v 0.543020 0.644401 0.701147
v 0.557061 0.662076 0.767012
v 0.589744 0.637752 0.701136
v 0.582116 0.665246 0.725349
v 0.581179 0.658650 0.767012
v 0.470778 0.399517 0.257777
v 0.414243 0.343194 0.159203
v 0.401576 0.439260 0.356350
v 0.426792 0.206867 0.460821
v 0.427932 0.206780 0.458831
v 0.275837 0.422677 0.356350
v 0.305101 0.234325 0.441540
v 0.356778 0.238950 0.442511
v 0.404959 0.134320 0.491698
v 0.219301 0.366355 0.257777
v 0.288505 0.326617 0.159203
v 0.366731 0.458941 0.222139
v 0.304390 0.450721 0.222139
v 0.321545 0.440868 0.197702
v 0.318404 0.464683 0.246575
v 0.352715 0.444979 0.197702
v 0.349575 0.468793 0.246575
v 0.484766 0.774523 0.702892
v 0.648868 0.753859 0.702892
v 0.663550 0.385903 0.564374
v 0.647780 0.745213 0.416545
v 0.730375 0.739207 0.559718
v 0.667605 0.388128 0.570554
v 0.572845 0.097207 0.506482
v 0.644293 0.398274 0.613138
v 0.640727 0.395971 0.618595
v 0.373922 0.397417 0.571389
v 0.402170 0.780534 0.559718
v 0.387766 0.399211 0.547490
v 0.483677 0.765877 0.416545
v 0.605626 0.903944 0.555220
v 0.563864 0.909199 0.555220
v 0.574236 0.907333 0.537003
v 0.574375 0.908437 0.573438
v 0.595117 0.904705 0.537003
v 0.595255 0.905802 0.573438
v 0.881841 0.270439 0.613033
v 0.822515 0.305388 0.493988
v 0.819223 0.299073 0.732079
v 0.697280 0.362653 0.732079
v 0.700573 0.368970 0.493988
v 0.792600 0.410712 0.604325
v 0.809631 0.401454 0.615510
v 0.804057 0.404736 0.604325
v 0.786717 0.413400 0.615510
v 0.803747 0.404148 0.626695
v 0.792291 0.410119 0.626695
v 0.254140 0.649026 0.398060
v 0.324820 0.677329 0.528812
v 0.249599 0.665562 0.659564
v 0.103699 0.625489 0.659564
v 0.108241 0.608953 0.398060
v 0.033020 0.597182 0.528812
v 0.121138 0.813944 0.501153
v 0.146674 0.822007 0.516569
v 0.138341 0.818671 0.501153
v 0.112269 0.812557 0.516569
v 0.137805 0.820614 0.531986
v 0.120602 0.815892 0.531986
v 0.534391 0.000739 0.473220
v 0.493676 0.000739 0.473603
v 0.298157 0.000739 0.465037
v 0.290321 0.000739 0.464819
v 0.425103 0.000739 0.725310
v 0.525908 0.000739 0.727945
v 0.647315 0.000739 0.508612
v 0.647584 0.000739 0.697079
v 0.711544 0.000739 0.603525
v 0.504460 0.000739 0.454252
v 0.451111 0.000739 0.344301
v 0.339415 0.000739 0.336452
v 0.285061 0.000739 0.440155
v 0.556128 0.000739 0.510367
v 0.546605 0.000739 0.692328
v 0.398180 0.000739 0.677371
v 0.290649 0.000739 0.676626
v 0.226414 0.000739 0.569884
vn 0.5641 0.7276 0.3903
vn 0.8647 -0.0683 -0.4976
vn 0.7354 0.5460 -0.4014
vn 0.4620 0.8864 0.0298
vn -0.0534 0.4046 0.9129
vn 0.0000 -1.0000 0.0000
vn 0.8425 -0.2246 0.4896
vn -0.8718 0.0190 0.4896
vn -0.8495 0.1753 -0.4976
vn -0.5771 0.7112 -0.4014
vn 0.0835 0.6632 0.7438
vn -0.1536 0.5594 0.8145
vn 0.8509 -0.1675 -0.4979
vn 0.8335 0.2993 0.4645
vn 0.8383 0.4674 -0.2807
vn -0.8249 -0.3641 -0.4324
vn -0.8659 0.0487 -0.4979
vn -0.1052 0.9389 0.3278
vn 0.1389 0.9776 0.1579
vn -0.1048 0.9389 0.3279
vn -0.7044 0.7098 -0.0015
vn -0.2642 0.9623 -0.0653
vn -0.0436 0.3303 -0.9429
vn -0.6269 0.7090 -0.3230
vn 0.5790 0.6740 -0.4588
vn 0.8299 0.4512 0.3280
vn 0.0277 -0.1009 -0.9945
vn -0.0967 0.9549 -0.2806
vn -0.0468 -0.0898 0.9949
vn 0.8336 0.2992 0.4644
vn -0.1173 0.8898 -0.4411
vn 0.3582 0.6869 0.6323
vn -0.0968 0.9550 -0.2804
vn 0.1251 0.9917 -0.0299
vn 0.8362 0.2229 0.5011
vn 0.3750 0.7192 -0.5849
vn -0.6454 0.5789 0.4983
vn 0.4963 0.8681 -0.0016
vn 0.8535 0.1599 -0.4960
vn 0.7383 0.5690 0.3622
vn 0.0777 0.6171 -0.7831
vn 0.8384 0.4674 -0.2806
vn -0.0257 -0.1810 0.9832
vn 0.0586 0.4125 0.9091
vn 0.0619 -0.4694 -0.8808
vn -0.0069 0.0252 0.9997
vn -0.8567 0.3374 0.3901
vn -0.2645 0.9622 -0.0652
vn -0.6641 0.4040 -0.6291
vn 0.8547 -0.1374 0.5006
vn -0.8621 0.0788 0.5006
vn 0.8547 -0.1373 0.5006
vn 0.7383 0.5690 0.3621
vn 0.7996 0.5063 -0.3230
vn -0.8420 0.2837 -0.4588
vn 0.7811 0.3762 0.4983
vn -0.2644 0.9622 -0.0656
vn 0.7811 0.3762 0.4984
vn -0.0965 0.9550 -0.2805
vn 0.0837 0.6631 0.7439
vn -0.1242 0.4520 -0.8833
vn 0.5642 0.7277 0.3901
vn 0.3751 0.7191 -0.5849
vn -0.0094 -0.0745 -0.9972
vn 0.8911 -0.1378 -0.4324
vn -0.0192 -0.0369 -0.9991
vn 0.7260 -0.4759 0.4964
vn -0.6269 0.7090 -0.3231
vn -0.8717 0.0190 0.4896
vn 0.8300 0.4512 0.3280
vn -0.0018 -0.0142 0.9999
vn -0.6454 0.5789 0.4984
vn -0.8059 0.3228 0.4964
vn -0.8327 -0.2355 0.5011
vn -0.1173 0.8897 -0.4411
vn 0.1248 0.9917 -0.0305
vn 0.4621 0.8863 0.0297
vn -0.0435 0.3303 -0.9429
vn -0.0533 0.4046 0.9129
vn -0.1242 0.9418 0.3122
vn 0.3580 0.6870 0.6324
vn 0.8335 0.2992 0.4645
vn -0.8826 0.0730 0.4645
vn -0.1052 0.9388 0.3280
vn 0.7354 0.5459 -0.4014
vn -0.7921 0.3493 -0.5006
vn -0.5742 0.7343 0.3621
vn -0.0968 0.9550 -0.2805
vn 0.5367 0.5623 -0.6291
vn 0.5789 0.6740 -0.4588
vn 0.8509 -0.1675 -0.4980
vn 0.0955 0.6727 -0.7337
vn -0.8154 -0.2985 -0.4960
vn 0.4623 0.8862 0.0302
vn -0.1242 0.9419 0.3122
vn -0.2642 0.9623 -0.0652
vn 0.7398 -0.4495 -0.5006
vn 0.7996 0.5063 -0.3231
vn 0.4621 0.8863 0.0296
vn 0.1390 0.9776 0.1579
vn 0.0956 0.6727 -0.7337
vn 0.5366 0.5624 -0.6291
vn -0.5743 0.7342 0.3620
usemtl None
f 80//1 71//1 77//1
f 3//2 6//2 5//2
f 57//3 44//3 43//3
f 67//4 69//4 68//4
f 25//5 28//5 30//5
f 92//6 91//6 83//6
f 87//7 96//7 7//7
f 93//6 92//6 84//6
f 2//8 12//8 9//8
f 3//7 5//7 1//7
f 12//9 10//9 11//9
f 55//10 52//10 50//10
f 40//11 41//11 58//11
f 95//6 88//6 89//6
f 73//12 72//12 80//12
f 46//13 95//13 82//13
f 91//14 23//14 27//14
f 66//15 65//15 59//15
f 82//13 43//13 46//13
f 93//16 94//16 32//16
f 26//17 31//17 51//17
f 28//5 29//5 30//5
f 67//18 47//18 69//18
f 73//12 80//12 81//12
f 19//19 22//19 17//19
f 47//20 48//20 62//20
f 14//19 21//19 17//19
f 35//21 32//21 28//21
f 79//22 81//22 80//22
f 24//23 36//23 38//23
f 15//24 10//24 12//24
f 70//25 78//25 77//25
f 65//26 61//26 59//26
f 85//27 74//27 29//27
f 64//28 63//28 45//28
f 61//29 62//29 7//29
f 25//30 26//30 27//30
f 12//9 11//9 9//9
f 35//31 37//31 34//31
f 69//32 62//32 61//32
f 67//33 64//33 45//33
f 56//34 58//34 53//34
f 52//17 27//17 51//17
f 9//35 11//35 49//35
f 71//35 72//35 49//35
f 63//36 66//36 60//36
f 16//37 12//37 2//37
f 34//38 39//38 25//38
f 51//17 49//17 50//17
f 27//17 26//17 51//17
f 71//39 51//39 70//39
f 58//40 44//40 53//40
f 43//41 55//41 57//41
f 89//6 96//6 95//6
f 98//6 99//6 84//6
f 83//6 82//6 95//6
f 43//13 44//13 42//13
f 66//42 59//42 60//42
f 35//21 28//21 37//21
f 51//39 31//39 30//39
f 87//43 1//43 2//43
f 1//44 22//44 19//44
f 93//45 24//45 92//45
f 73//46 98//46 8//46
f 75//47 73//47 81//47
f 80//48 77//48 78//48
f 97//6 98//6 84//6
f 96//6 86//6 97//6
f 42//13 46//13 43//13
f 74//27 70//27 29//27
f 96//6 87//6 86//6
f 8//46 72//46 73//46
f 36//49 32//49 35//49
f 22//19 14//19 17//19
f 6//50 4//50 48//50
f 50//51 49//51 10//51
f 48//52 47//52 6//52
f 7//7 3//7 1//7
f 58//53 41//53 44//53
f 13//54 20//54 14//54
f 97//8 86//8 8//8
f 36//49 33//49 32//49
f 75//55 79//55 76//55
f 14//56 22//56 1//56
f 93//45 33//45 24//45
f 10//51 15//51 50//51
f 78//57 76//57 79//57
f 14//58 1//58 5//58
f 63//59 42//59 45//59
f 34//31 38//31 35//31
f 40//60 58//60 56//60
f 70//61 74//61 76//61
f 34//38 25//38 23//38
f 80//62 72//62 71//62
f 63//63 64//63 66//63
f 87//43 2//43 86//43
f 44//50 41//50 13//50
f 44//50 13//50 6//50
f 93//16 32//16 33//16
f 27//64 52//64 43//64
f 92//65 23//65 91//65
f 88//66 95//66 46//66
f 27//64 43//64 82//64
f 90//67 59//67 61//67
f 12//68 16//68 15//68
f 9//35 49//35 72//35
f 8//69 86//69 9//69
f 65//70 68//70 61//70
f 3//2 4//2 6//2
f 88//6 90//6 89//6
f 40//71 15//71 18//71
f 1//44 19//44 2//44
f 70//27 30//27 29//27
f 55//10 50//10 54//10
f 20//54 21//54 14//54
f 89//29 61//29 7//29
f 16//72 2//72 19//72
f 48//73 4//73 3//73
f 94//6 93//6 84//6
f 73//74 99//74 98//74
f 84//6 92//6 83//6
f 38//75 36//75 35//75
f 46//66 63//66 60//66
f 55//76 54//76 56//76
f 65//77 66//77 67//77
f 24//78 33//78 36//78
f 20//71 13//71 41//71
f 56//76 53//76 55//76
f 31//79 26//79 30//79
f 25//80 37//80 28//80
f 69//81 61//81 68//81
f 62//73 48//73 3//73
f 23//82 25//82 27//82
f 84//83 29//83 94//83
f 69//84 47//84 62//84
f 57//85 53//85 44//85
f 42//86 63//86 46//86
f 54//87 50//87 40//87
f 45//88 47//88 67//88
f 37//75 39//75 34//75
f 3//73 7//73 62//73
f 72//35 8//35 9//35
f 29//27 84//27 85//27
f 70//39 51//39 30//39
f 38//89 23//89 24//89
f 70//90 77//90 71//90
f 45//50 44//50 6//50
f 86//8 2//8 9//8
f 44//91 45//91 42//91
f 26//79 25//79 30//79
f 21//92 20//92 18//92
f 1//7 87//7 7//7
f 18//71 20//71 41//71
f 75//47 81//47 79//47
f 99//93 75//93 74//93
f 66//94 64//94 67//94
f 90//67 61//67 89//67
f 70//61 76//61 78//61
f 25//95 39//95 37//95
f 99//6 85//6 84//6
f 78//96 79//96 80//96
f 16//68 17//68 18//68
f 90//97 60//97 59//97
f 5//98 6//98 13//98
f 98//46 97//46 8//46
f 47//50 45//50 6//50
f 15//24 16//24 18//24
f 15//51 40//51 50//51
f 68//99 65//99 67//99
f 53//76 57//76 55//76
f 96//29 89//29 7//29
f 49//51 11//51 10//51
f 14//54 5//54 13//54
f 17//100 16//100 19//100
f 94//83 29//83 32//83
f 73//74 75//74 99//74
f 99//93 74//93 85//93
f 21//101 18//101 17//101
f 60//66 88//66 46//66
f 90//97 88//97 60//97
f 50//17 52//17 51//17
f 29//83 28//83 32//83
f 83//6 95//6 97//6
f 38//102 34//102 23//102
f 95//6 96//6 97//6
f 41//71 40//71 18//71
f 27//14 83//14 91//14
f 49//35 51//35 71//35
f 92//65 24//65 23//65
f 82//64 83//64 27//64
f 97//6 84//6 83//6
f 54//103 40//103 56//103
f 43//41 52//41 55//41
f 75//55 76//55 74//55
