# Blender v2.79 (sub 0) OBJ File: ''
# www.blender.org
mtllib watercrystal.mtl
o Crystal_Customizer3
v 0.597829 0.014232 0.453660
v 0.728653 0.317554 0.259555
v 0.597260 0.079990 0.463432
v 0.682492 0.372275 0.349571
v 0.662883 0.289281 0.169539
v 0.550952 0.315728 0.169539
v 0.486507 0.074832 0.431114
v 0.500460 0.074571 0.454487
v 0.504791 0.370450 0.259555
v 0.459344 0.008113 0.431539
v 0.491636 0.004753 0.463488
v 0.520029 0.121504 0.454953
v 0.570562 0.398720 0.349571
v 0.565936 0.110802 0.454900
v 0.567558 0.087387 0.463294
v 0.650794 0.376510 0.240856
v 0.600805 0.388325 0.240856
v 0.615492 0.394635 0.260957
v 0.640486 0.388730 0.260957
v 0.611113 0.376105 0.220755
v 0.636107 0.370200 0.220755
v 0.249933 0.553035 0.427243
v 0.365692 0.584000 0.427243
v 0.424692 0.595290 0.530927
v 0.367933 0.575620 0.634611
v 0.472160 0.269333 0.551627
v 0.466730 0.354605 0.534205
v 0.475297 0.257343 0.549998
v 0.474617 0.354585 0.520662
v 0.382662 0.513515 0.628788
v 0.492585 0.109224 0.454807
v 0.487248 0.000791 0.527884
v 0.289022 0.495905 0.629444
v 0.252174 0.544660 0.634611
v 0.308609 0.355445 0.616600
v 0.193174 0.533365 0.530927
v 0.298361 0.660350 0.534921
v 0.270156 0.652805 0.534921
v 0.277344 0.654180 0.547552
v 0.277071 0.655200 0.522289
v 0.291446 0.657950 0.547552
v 0.291173 0.658975 0.522289
v 0.522064 0.135177 0.663298
v 0.507153 0.533350 0.760850
v 0.533523 0.289788 0.665532
v 0.279240 0.532985 0.640925
v 0.424699 0.563815 0.640925
v 0.444148 0.472055 0.880776
v 0.494660 0.278187 0.594167
v 0.494810 0.260537 0.584325
v 0.216235 0.471685 0.760850
v 0.298689 0.441220 0.880776
v 0.358673 0.571685 0.787556
v 0.336395 0.566960 0.787556
v 0.342710 0.564630 0.796740
v 0.341220 0.571655 0.778372
v 0.353848 0.566990 0.796740
v 0.352359 0.574015 0.778372
v 0.848724 0.537925 0.673388
v 0.768598 0.530215 0.800130
v 0.784276 0.586155 0.546645
v 0.616184 0.526840 0.530791
v 0.639702 0.626675 0.546645
v 0.656000 0.465465 0.523310
v 0.559576 0.618960 0.673388
v 0.624024 0.570730 0.800130
v 0.512296 0.368255 0.614323
v 0.538339 0.471400 0.627853
v 0.594402 0.545935 0.576769
v 0.611549 0.545155 0.548325
v 0.696097 0.670825 0.635199
v 0.787098 0.632185 0.690378
v 0.752214 0.628830 0.745558
v 0.759039 0.653185 0.635199
v 0.661213 0.667465 0.690378
v 0.689271 0.646470 0.745558
v 0.619167 0.474070 0.458404
v 0.521713 0.484975 0.458404
v 0.472338 0.484645 0.543128
v 0.520418 0.473405 0.627853
v 0.572194 0.570410 0.535229
v 0.597018 0.566635 0.549680
v 0.588596 0.566580 0.564132
v 0.588817 0.568550 0.535229
v 0.563772 0.570355 0.549680
v 0.571973 0.568435 0.564132
v 0.647003 -0.000848 0.542009
v 0.494647 -0.000848 0.356108
v 0.595580 -0.000848 0.455684
v 0.535607 -0.000848 0.473327
v 0.616284 -0.000848 0.418575
v 0.576926 -0.000848 0.345113
v 0.415066 -0.000848 0.431518
v 0.594648 -0.000848 0.629194
v 0.416845 -0.000848 0.657577
v 0.518796 -0.000848 0.647252
v 0.367539 -0.000848 0.567802
v 0.369143 -0.000848 0.507441
v 0.530115 -0.000848 0.623862
v 0.496370 -0.000848 0.536819
v 0.481273 -0.000848 0.528815
v 0.386072 -0.000848 0.535291
v 0.466892 -0.000848 0.439971
v 0.460134 -0.000848 0.431605
vn -0.4390 0.7426 0.5058
vn -0.2583 0.9651 0.0419
vn -0.2040 0.9625 -0.1788
vn 0.2605 0.9633 0.0653
vn 0.7828 -0.4077 0.4701
vn -0.2580 0.9652 0.0418
vn 0.8429 0.1962 -0.5010
vn -0.2078 -0.8795 0.4281
vn 0.0000 -1.0000 0.0000
vn -0.9063 -0.0830 -0.4143
vn -0.3956 0.8974 -0.1955
vn 0.0019 -0.0071 -1.0000
vn -0.2092 0.9662 -0.1505
vn -0.8807 0.0585 0.4701
vn 0.2078 0.8795 -0.4280
vn 0.8537 0.1559 0.4969
vn 0.2630 0.9386 0.2234
vn 0.0413 0.1472 -0.9882
vn 0.1109 0.9915 0.0684
vn 0.8225 0.2823 -0.4938
vn -0.8205 0.2730 -0.5021
vn 0.2080 0.8795 -0.4280
vn -0.2584 0.9651 0.0419
vn -0.2576 0.7614 -0.5950
vn 0.1325 0.5610 -0.8171
vn 0.4312 0.8134 0.3904
vn -0.1702 0.6369 0.7519
vn -0.8175 -0.2911 0.4969
vn 0.0597 0.5334 0.8438
vn -0.8082 0.3322 0.4862
vn 0.0019 -0.0072 -1.0000
vn 0.1326 0.5610 -0.8171
vn 0.0806 0.3413 0.9365
vn -0.8663 -0.0757 -0.4938
vn -0.1155 -0.4890 -0.8646
vn 0.2631 0.9385 0.2234
vn -0.8206 0.2730 -0.5021
vn -0.2039 0.9625 -0.1788
vn 0.2261 0.8066 -0.5461
vn 0.0011 0.0095 -1.0000
vn -0.6289 0.7747 0.0656
vn 0.5711 0.5656 -0.5949
vn -0.0595 0.2809 -0.9579
vn 0.0235 -0.0878 0.9959
vn -0.6239 0.6932 -0.3609
vn -0.1247 0.5885 0.7988
vn 0.2605 0.9632 0.0656
vn -0.7875 0.5187 -0.3328
vn 0.3001 0.7762 0.5544
vn -0.1930 0.9111 0.3641
vn -0.5892 0.5877 0.5544
vn -0.8619 0.0716 -0.5020
vn -0.1247 0.5885 0.7989
vn 0.1931 -0.9111 -0.3642
vn 0.2582 -0.9652 -0.0418
vn -0.8695 0.0036 0.4939
vn -0.1934 0.9110 0.3641
vn 0.3001 0.7762 0.5545
vn -0.5893 0.5877 0.5543
vn 0.8429 -0.1932 -0.5021
vn -0.8283 -0.2508 -0.5010
vn 0.8043 0.5611 -0.1955
vn 0.2293 0.9707 0.0715
vn 0.7556 0.4833 0.4422
vn 0.6195 0.7704 -0.1506
vn 0.7610 0.4063 0.5058
vn 0.8714 -0.0647 0.4862
vn 0.8564 -0.1207 -0.5020
vn -0.7875 0.5187 -0.3327
vn -0.1861 0.6952 -0.6943
vn 0.1393 0.4971 0.8564
vn -0.0790 -0.2819 0.9562
vn 0.7734 -0.4799 -0.4143
vn 0.8978 -0.0728 0.4344
vn -0.6239 0.6932 -0.3610
vn 0.5712 0.5655 -0.5949
vn 0.0910 -0.4293 0.8985
vn -0.8663 -0.0756 -0.4938
vn 0.0720 0.6431 -0.7624
vn 0.7617 0.5382 -0.3609
vn 0.6195 0.7704 -0.1507
vn -0.8208 0.2730 -0.5018
vn -0.1109 -0.9915 -0.0686
vn -0.7797 0.4895 0.3904
vn -0.0142 -0.1265 0.9919
vn -0.6300 0.6383 0.4423
vn 0.7733 -0.4799 -0.4143
vn -0.6300 0.6383 0.4422
vn 0.4234 0.8426 -0.3327
vn 0.7557 0.4832 0.4422
vn 0.4235 0.8426 -0.3327
vn -0.1860 0.6953 -0.6943
vn 0.7617 0.5381 -0.3610
vn -0.2092 0.9662 -0.1506
vn 0.1393 0.4971 0.8565
vn 0.1106 0.9915 0.0689
vn 0.7617 0.5382 -0.3608
vn 0.4312 0.8133 0.3906
vn -0.7910 -0.4308 0.4344
vn 0.7617 0.5381 -0.3609
vn 0.8564 -0.1206 -0.5020
vn -0.1703 0.6369 0.7519
vn 0.0595 0.5333 0.8438
usemtl None
s off
f 66//1 76//1 75//1
f 42//2 41//2 37//2
f 46//3 58//3 47//3
f 58//4 53//4 44//4
f 94//5 87//5 59//5
f 41//6 38//6 39//6
f 23//7 29//7 7//7
f 90//8 11//8 103//8
f 93//9 102//9 98//9
f 88//10 10//10 9//10
f 75//11 71//11 63//11
f 22//12 7//12 93//12
f 18//13 17//13 9//13
f 66//14 45//14 43//14
f 18//15 19//15 21//15
f 24//16 27//16 29//16
f 75//17 74//17 71//17
f 64//18 62//18 61//18
f 85//19 83//19 81//19
f 84//19 83//19 82//19
f 47//20 49//20 26//20
f 65//21 68//21 67//21
f 10//10 88//10 104//10
f 73//17 75//17 76//17
f 18//22 20//22 17//22
f 40//23 41//23 42//23
f 9//24 17//24 20//24
f 90//9 92//9 89//9
f 5//25 20//25 21//25
f 41//26 25//26 24//26
f 7//12 22//12 23//12
f 61//18 62//18 63//18
f 88//9 92//9 90//9
f 64//18 3//18 15//18
f 34//27 41//27 39//27
f 27//16 26//16 28//16
f 36//28 35//28 34//28
f 69//29 86//29 68//29
f 9//30 12//30 13//30
f 93//31 10//31 104//31
f 64//18 61//18 3//18
f 5//32 6//32 20//32
f 14//33 13//33 12//33
f 100//9 90//9 87//9
f 33//34 51//34 46//34
f 92//35 6//35 5//35
f 74//36 73//36 72//36
f 7//30 12//30 9//30
f 49//37 67//37 50//37
f 65//14 45//14 66//14
f 40//6 38//6 41//6
f 75//11 63//11 65//11
f 45//14 65//14 49//14
f 46//38 56//38 58//38
f 63//39 74//39 61//39
f 29//7 23//7 24//7
f 26//20 50//20 28//20
f 12//40 77//40 14//40
f 54//41 46//41 51//41
f 3//33 14//33 15//33
f 3//18 61//18 1//18
f 16//42 2//42 5//42
f 51//34 35//34 97//34
f 10//12 93//12 7//12
f 30//43 47//43 26//43
f 34//44 33//44 25//44
f 79//45 81//45 78//45
f 25//44 33//44 30//44
f 78//40 12//40 31//40
f 52//46 48//46 57//46
f 58//47 44//47 47//47
f 36//48 38//48 40//48
f 57//49 48//49 44//49
f 56//50 55//50 58//50
f 52//51 54//51 51//51
f 79//52 29//52 27//52
f 20//15 18//15 21//15
f 52//53 57//53 55//53
f 94//9 100//9 87//9
f 63//39 71//39 74//39
f 47//43 30//43 46//43
f 101//54 32//54 100//54
f 69//37 63//37 70//37
f 98//28 35//28 36//28
f 26//20 49//20 50//20
f 101//55 11//55 32//55
f 46//43 30//43 33//43
f 79//56 67//56 80//56
f 26//16 27//16 30//16
f 58//57 57//57 53//57
f 57//58 44//58 53//58
f 78//52 29//52 79//52
f 55//57 56//57 54//57
f 29//52 78//52 31//52
f 52//59 55//59 54//59
f 89//60 1//60 87//60
f 98//61 36//61 22//61
f 72//62 61//62 74//62
f 27//16 24//16 30//16
f 101//55 103//55 11//55
f 1//60 61//60 87//60
f 94//9 99//9 100//9
f 45//20 47//20 44//20
f 12//30 7//30 8//30
f 4//63 18//63 13//63
f 82//64 69//64 70//64
f 81//19 83//19 84//19
f 19//65 4//65 2//65
f 60//66 59//66 72//66
f 1//67 91//67 3//67
f 3//67 2//67 4//67
f 14//68 64//68 15//68
f 88//10 9//10 6//10
f 36//69 40//69 22//69
f 23//70 40//70 42//70
f 73//71 66//71 60//71
f 7//7 31//7 8//7
f 94//72 43//72 99//72
f 2//73 92//73 5//73
f 69//37 65//37 63//37
f 43//74 45//74 48//74
f 55//50 57//50 58//50
f 98//61 22//61 93//61
f 72//62 59//62 61//62
f 92//35 88//35 6//35
f 68//37 65//37 69//37
f 96//74 43//74 48//74
f 79//75 85//75 81//75
f 16//76 5//76 21//76
f 95//77 48//77 52//77
f 30//16 24//16 25//16
f 100//9 95//9 101//9
f 35//78 51//78 33//78
f 104//9 103//9 93//9
f 68//29 86//29 80//29
f 95//9 99//9 96//9
f 31//7 7//7 29//7
f 10//30 7//30 9//30
f 78//79 81//79 84//79
f 84//80 62//80 77//80
f 19//81 2//81 16//81
f 65//82 67//82 49//82
f 31//40 12//40 8//40
f 54//41 56//41 46//41
f 67//56 27//56 50//56
f 90//83 32//83 11//83
f 43//72 60//72 66//72
f 39//84 38//84 36//84
f 68//85 80//85 67//85
f 66//1 75//1 65//1
f 79//86 86//86 85//86
f 39//84 36//84 34//84
f 2//87 91//87 92//87
f 102//28 35//28 98//28
f 90//83 100//83 32//83
f 79//88 80//88 86//88
f 50//56 27//56 28//56
f 21//22 19//22 16//22
f 9//24 20//24 6//24
f 37//89 24//89 23//89
f 89//9 92//9 91//9
f 94//5 59//5 60//5
f 74//17 75//17 73//17
f 82//90 83//90 69//90
f 101//9 102//9 93//9
f 87//9 90//9 89//9
f 37//91 23//91 42//91
f 23//92 22//92 40//92
f 87//60 61//60 59//60
f 97//34 35//34 102//34
f 60//66 72//66 73//66
f 60//72 43//72 94//72
f 4//63 19//63 18//63
f 82//93 70//93 84//93
f 18//94 9//94 13//94
f 73//95 76//95 66//95
f 103//9 88//9 90//9
f 83//96 85//96 86//96
f 62//97 84//97 70//97
f 43//74 96//74 99//74
f 41//98 24//98 37//98
f 95//77 96//77 48//77
f 91//67 1//67 89//67
f 95//99 51//99 97//99
f 77//100 62//100 64//100
f 33//44 34//44 35//44
f 78//79 84//79 77//79
f 14//101 77//101 64//101
f 13//33 14//33 4//33
f 27//56 67//56 79//56
f 4//33 14//33 3//33
f 77//40 12//40 78//40
f 97//9 101//9 95//9
f 88//9 103//9 104//9
f 34//102 25//102 41//102
f 70//37 63//37 62//37
f 102//9 101//9 97//9
f 86//103 69//103 83//103
f 49//20 47//20 45//20
f 101//9 93//9 103//9
f 91//67 2//67 3//67
f 99//9 95//9 100//9
f 48//74 45//74 44//74
f 95//99 52//99 51//99
